
      <svg
        xmlns="http://www.w3.org/2000/svg"
        width="100"
        height="100"
        viewBox="0 0 100 100"
        fill="none"
        stroke="currentColor"
        strokeWidth="2"
        strokeLinecap="round"
        strokeLinejoin="round"
      >
        <path
          d="M21.54 15H17a2 2 0 0 0-2 2v4.54"
      />
        <path
          d="M7 3.34V5a3 3 0 0 0 3 3a2 2 0 0 1 2 2c0 1.1.9 2 2 2a2 2 0 0 0 2-2c0-1.1.9-2 2-2h3.17"
        />
        <path
          d="M11 21.95V18a2 2 0 0 0-2-2a2 2 0 0 1-2-2v-1a2 2 0 0 0-2-2H2.05"
        />
        <circle
          cx="50"
          cy="50"
          r="35"
        />
      </svg>